<svg xmlns="http://www.w3.org/2000/svg" viewBox="0 0 789.52 199"><defs><style>.cls-1{fill:#fff;}</style></defs><title>BZcom-logo</title><g id="Layer_2"><g id="Layer_1-2"><path class="cls-1" d="M342.15,117.68q6.06,1,8.75,4.24t2.7,9.16v7.07a41.81,41.81,0,0,1-.27,5.5,14.65,14.65,0,0,1-.95,3.54,8.61,8.61,0,0,1-4.53,4.69c-2.09.92-5.1,1.38-9.05,1.38h-53V84.71h52.53a34.34,34.34,0,0,1,6,.4,10.78,10.78,0,0,1,4,1.55,8.62,8.62,0,0,1,3.86,4.52,27,27,0,0,1,1,8.63V106c0,3.62-.82,6.3-2.45,8.06S346.26,117,342.15,117.68Zm-7.52-5q4.37,0,5.94-1.58t1.58-6.15v-1.71q0-4.41-1.58-6.07t-5.94-1.65H296.94v17.16Zm.39,29.81q4.37,0,5.94-1.61t1.58-6.12v-4.32c0-2.94-.53-5-1.58-6s-3-1.63-5.94-1.63H296.94v19.72Z"/><path class="cls-1" d="M384.38,148.64,431.09,95.5H388.35V84.71h62.77v4l-47.29,53.75h47.48v10.79H384.38Z"/><path class="cls-1" d="M546.94,109.9V95.5H495.09v47h51.85V126.56L558.1,129v9.13a27.08,27.08,0,0,1-.8,7.1,10.79,10.79,0,0,1-2.5,4.67,9.57,9.57,0,0,1-4.51,2.56,25.67,25.67,0,0,1-6.79.78H498.59a25.34,25.34,0,0,1-6.82-.78,9.75,9.75,0,0,1-4.46-2.56,10.36,10.36,0,0,1-2.48-4.67,28.66,28.66,0,0,1-.75-7.1V99.81q0-8.32,3.23-11.72t11.28-3.38H543.5q8.06,0,11.33,3.38t3.27,11.72v7.63Z"/><path class="cls-1" d="M668.14,138.15a27.08,27.08,0,0,1-.8,7.1,10.89,10.89,0,0,1-2.5,4.67,9.62,9.62,0,0,1-4.51,2.56,25.72,25.72,0,0,1-6.79.78H608.62a25.26,25.26,0,0,1-6.81-.78,9.78,9.78,0,0,1-4.47-2.56,10.35,10.35,0,0,1-2.47-4.67,28.66,28.66,0,0,1-.75-7.1V99.81q0-8.32,3.22-11.72t11.28-3.38h44.92q8.06,0,11.32,3.38t3.28,11.72ZM657,142.47v-47H605.13v47Z"/><path class="cls-1" d="M789.52,84.71v68.55H778.37v-54L749,142.47h-2.76L716.57,99.21v54.05h-11.1V84.71h14l28.91,42.35,28.72-42.35Z"/><path class="cls-1" d="M131.53,70.71l-32.32,50h48.58c-.53-6-2-9.39-4.33-12.62a25,25,0,0,0-14.62-9.57v-.74c6-1.24,9.22-4,12.33-8.29A25.82,25.82,0,0,0,145.86,74c0-9.23-3.56-16.18-10.69-20.55s-18-6.69-32.74-6.69H64.84v24Z"/><path class="cls-1" d="M71.09,132.71l32.41-50H64.84v72h42c12.73,0,22.79-2.88,30.16-8.53a28.56,28.56,0,0,0,9.63-13.47Z"/><path class="cls-1" d="M171.75,162.77l-5.68-.78a10.52,10.52,0,0,1-6.34-3.33,69.23,69.23,0,0,1-10.26,9.5c-11.26,8.57-25.65,13.91-41.63,15.43a82.87,82.87,0,0,1-44.62-7.82,84.78,84.78,0,0,1-34.84-31.12,83.55,83.55,0,0,1-12.46-37.28,81.84,81.84,0,0,1-.28-8.71A84.62,84.62,0,0,1,69.92,21.54a81.8,81.8,0,0,1,49.75-2.83c21.63,5.74,40.4,19.74,51.51,38.4a84.24,84.24,0,0,1,11.53,51.68l21.71,8.51a52.36,52.36,0,0,1-3.61-9.17,30.63,30.63,0,0,1-1.13-6.14c-.17-2.06-.18-4-.19-5.95,0-1.75,0-3.4-.16-5l0-.28c0-.63-.09-1.27-.14-1.9a95.9,95.9,0,0,0-23.44-54.85A99.63,99.63,0,0,0,118,1.63,99.62,99.62,0,0,0,16.3,45a99.32,99.32,0,0,0-14.52,73.3v.07a99,99,0,0,0,42,63.79l0,0c22.44,15.21,51.8,20.53,78.55,14.23h.06a98.18,98.18,0,0,0,50.33-29.52Z"/><path class="cls-1" d="M250.51,145.41l-78.34-30.73a1.91,1.91,0,0,0-2.55,2.25l3.56,13.87,59,14.15-56.54-4.49-9.08,10.33a1.19,1.19,0,0,0,.73,2l11.91,1.62,3,11.56a1.93,1.93,0,0,0,2.43,1.36l65.83-20.73A.6.6,0,0,0,250.51,145.41Z"/></g></g></svg>
